<?xml version="1.0" encoding="UTF-8" standalone="no"?>
<svg xmlns:ffdec="https://www.free-decompiler.com/flash" xmlns:xlink="http://www.w3.org/1999/xlink" ffdec:objectType="shape" height="17.2px" width="13.7px" xmlns="http://www.w3.org/2000/svg">
  <g transform="matrix(1.0, 0.0, 0.0, 1.0, 6.1, 16.95)">
    <path d="M5.8 -1.6 L7.45 -1.85 7.55 -1.85 7.55 -1.8 7.45 -1.8 5.8 -1.6" fill="#ffffff" fill-rule="evenodd" stroke="none"/>
    <path d="M-6.1 -1.55 L0.7 -1.35 0.9 -1.35 5.8 -1.6 7.45 -1.8 7.55 -1.8 Q7.0 -0.8 5.9 0.05 L5.25 0.05 3.35 0.1 1.45 0.1 -0.45 0.2 -1.8 0.25 -3.65 0.05 -4.95 0.05 -5.75 0.1 -6.1 -1.55" fill="#fffcd9" fill-rule="evenodd" stroke="none"/>
    <path d="M5.8 -1.6 L0.9 -1.35 0.7 -1.35 -6.1 -1.55 -5.3 -2.45 -4.55 -2.45 -1.75 -2.45 0.95 -2.35 4.6 -2.15 7.45 -1.85 5.8 -1.6" fill="#fffdea" fill-rule="evenodd" stroke="none"/>
    <path d="M-6.1 -1.55 L0.7 -1.35 0.9 -1.35 5.8 -1.6 7.45 -1.85 4.6 -2.15 0.95 -2.35 -1.75 -2.45 -4.55 -2.45 -5.3 -2.45 M-6.1 -1.55 L-5.75 0.1 -4.95 0.05 -3.65 0.05 -1.8 0.25 -0.45 0.2 1.45 0.1 3.35 0.1 5.25 0.05 5.9 0.05 Q7.0 -0.8 7.55 -1.8 L7.55 -1.85 7.45 -1.85 M7.55 -1.8 L7.6 -1.85 7.55 -1.85" ffdec:has-small-stroke="true" ffdec:original-stroke-width="0.05" fill="none" stroke="#666666" stroke-linecap="round" stroke-linejoin="round" stroke-width="1.0"/>
    <path d="M-5.3 -2.45 L-6.1 -1.55" ffdec:has-small-stroke="true" ffdec:original-stroke-width="0.05" fill="none" stroke="#666666" stroke-linecap="round" stroke-linejoin="round" stroke-width="1.0"/>
    <path d="M0.5 -1.85 L0.15 -1.85 0.15 -16.95 0.5 -16.95 0.5 -1.85" fill="#cfcfcf" fill-rule="evenodd" stroke="none"/>
    <path d="M0.15 -1.85 L0.15 -16.95 0.5 -16.95 0.5 -1.85" ffdec:has-small-stroke="true" ffdec:original-stroke-width="0.05" fill="none" stroke="#999999" stroke-linecap="round" stroke-linejoin="round" stroke-width="1.0"/>
    <path d="M0.2 -16.9 L0.2 -3.65 -5.15 -3.95 -4.95 -4.7 -4.75 -5.5 -4.5 -6.3 -4.3 -7.05 -4.15 -7.9 -3.95 -8.7 -3.8 -9.5 -3.55 -10.9 -3.2 -11.95 -2.8 -13.0 -2.35 -14.0 -2.1 -14.6 -1.35 -15.4 -0.3 -16.55 0.05 -16.85 0.2 -16.9 M3.7 -4.35 L3.75 -4.3 4.3 -3.0 4.55 -2.35 Q3.75 -2.2 3.05 -2.35 L0.95 -2.8 0.7 -2.85 0.5 -3.0 0.5 -14.4 1.75 -10.2 2.95 -6.05 Q3.15 -5.15 3.7 -4.35" fill="#ffffff" fill-rule="evenodd" stroke="none"/>
    <path d="M0.2 -16.9 L0.2 -3.65 -5.15 -3.95 -4.95 -4.7 -4.75 -5.5 -4.5 -6.3 -4.3 -7.05 -4.15 -7.9 -3.95 -8.7 -3.8 -9.5 -3.55 -10.9 -3.2 -11.95 -2.8 -13.0 -2.35 -14.0 -2.1 -14.6 -1.35 -15.4 -0.3 -16.55 0.05 -16.85 0.2 -16.9 M3.7 -4.35 L3.75 -4.3 4.3 -3.0 4.55 -2.35 Q3.75 -2.2 3.05 -2.35 L0.95 -2.8 0.7 -2.85 0.5 -3.0 0.5 -14.4 1.75 -10.2 2.95 -6.05 Q3.15 -5.15 3.7 -4.35 Z" ffdec:has-small-stroke="true" ffdec:original-stroke-width="0.05" fill="none" stroke="#999999" stroke-linecap="round" stroke-linejoin="round" stroke-width="1.0"/>
  </g>
</svg>
