<?xml version="1.0" encoding="UTF-8" standalone="no"?>
<svg xmlns:ffdec="https://www.free-decompiler.com/flash" xmlns:xlink="http://www.w3.org/1999/xlink" ffdec:objectType="shape" height="17.0px" width="24.55px" xmlns="http://www.w3.org/2000/svg">
  <g transform="matrix(1.0, 0.0, 0.0, 1.0, 13.45, 15.55)">
    <path d="M1.15 -1.4 L2.7 -1.5 3.55 -1.6 4.4 -1.8 4.75 -1.95 5.4 -2.3 5.65 -2.45 6.0 -2.7 6.35 -2.95 6.55 -3.15 7.25 -3.8 7.5 -4.0 8.5 -4.65 8.75 -4.8 8.75 -4.9 8.9 -5.0 9.35 -5.0 9.45 -5.0 9.5 -4.95 9.6 -4.9 9.65 -4.9 9.75 -4.8 10.25 -4.2 10.3 -4.1 10.5 -3.7 10.5 -3.55 10.55 -3.0 10.55 -2.9 10.6 -2.8 10.6 -1.0 10.55 -0.8 10.0 -0.15 9.75 0.0 9.15 0.3 8.75 0.55 7.6 0.85 7.15 0.85 6.25 0.95 6.0 0.95 4.65 0.95 3.35 0.95 3.15 0.95 1.55 0.95 -0.05 0.95 -0.4 0.95 -1.6 0.95 -3.15 0.95 -4.8 0.95 -5.5 0.85 -6.35 0.6 -7.45 -0.2 -7.7 -0.5 -8.05 -1.3 -8.1 -1.5 -8.1 -2.7 -7.2 -2.75 -6.85 -2.6 -6.05 -2.3 -5.25 -2.1 -4.8 -2.0 -4.3 -1.85 -3.2 -1.55 -2.4 -1.4 -1.85 -1.4 -0.45 -1.4 -0.15 -1.4 1.15 -1.4 M0.35 -14.75 L0.6 -14.95 0.85 -15.05 0.9 -15.05 0.95 -14.3 0.95 -14.1 0.85 -13.4 0.85 -13.05 0.8 -12.75 0.7 -12.05 0.4 -10.2 0.4 -8.25 0.25 -6.65 0.15 -6.15 -0.45 -6.2 -0.75 -6.15 -1.4 -6.1 -1.8 -6.1 -3.4 -6.0 -4.0 -5.95 -5.55 -5.9 -7.1 -5.9 -8.55 -5.9 -10.05 -5.9 -10.45 -5.85 -12.0 -6.1 -12.3 -6.15 Q-12.65 -6.25 -12.85 -6.5 L-12.9 -6.6 -12.85 -7.0 -12.8 -7.05 -12.7 -7.25 -12.65 -7.35 -12.45 -7.55 -12.3 -7.65 -11.9 -8.0 -11.65 -8.2 -10.25 -9.0 -9.95 -9.2 -8.55 -10.05 -8.05 -10.4 -7.3 -10.9 -6.85 -11.15 -5.45 -12.0 -4.0 -12.7 -3.15 -13.05 -2.65 -13.25 -1.95 -13.55 -1.4 -13.85 -0.9 -14.1 -0.4 -14.35 0.0 -14.55 0.35 -14.75" fill="#ffcc66" fill-rule="evenodd" stroke="none"/>
    <path d="M0.35 -14.75 L0.0 -14.55 -0.4 -14.35 -0.9 -14.1 -1.4 -13.85 -1.95 -13.55 -2.65 -13.25 -3.15 -13.05 -4.0 -12.7 -5.45 -12.0 -6.85 -11.15 -7.3 -10.9 -8.05 -10.4 -8.55 -10.05 -9.95 -9.2 -10.25 -9.0 -11.65 -8.2 -11.9 -8.0 -12.3 -7.65 -12.45 -7.55 -12.65 -7.35 -12.7 -7.25 -12.8 -7.05 -12.85 -7.0 -12.9 -6.6 -12.85 -6.5 Q-12.65 -6.25 -12.3 -6.15 L-12.0 -6.1 -10.45 -5.85 -10.05 -5.9 -8.55 -5.9 -7.1 -5.9 -5.55 -5.9 -4.0 -5.95 -3.4 -6.0 -1.8 -6.1 -1.4 -6.1 -0.75 -6.15 -0.45 -6.2 0.15 -6.15 0.25 -6.65 0.4 -8.25 0.4 -10.2 0.7 -12.05 0.8 -12.75 0.85 -13.05 0.85 -13.4 0.95 -14.1 0.95 -14.3 0.9 -15.05 0.85 -15.05 0.6 -14.95 0.35 -14.75 M1.15 -1.4 L-0.15 -1.4 -0.45 -1.4 -1.85 -1.4 -2.4 -1.4 -3.2 -1.55 -4.3 -1.85 -4.8 -2.0 -5.25 -2.1 -6.05 -2.3 -6.85 -2.6 -7.2 -2.75 -8.1 -2.7 -8.1 -1.5 -8.05 -1.3 -7.7 -0.5 -7.45 -0.2 -6.35 0.6 -5.5 0.85 -4.8 0.95 -3.15 0.95 -1.6 0.95 -0.4 0.95 -0.05 0.95 1.55 0.95 3.15 0.95 3.35 0.95 4.65 0.95 6.0 0.95 6.25 0.95 7.15 0.85 7.6 0.85 8.75 0.55 9.15 0.3 9.75 0.0 10.0 -0.15 10.55 -0.8 10.6 -1.0 10.6 -2.8 10.55 -2.9 10.55 -3.0 10.5 -3.55 10.5 -3.7 10.3 -4.1 10.25 -4.2 9.75 -4.8 9.65 -4.9 9.6 -4.9 9.5 -4.95 9.45 -5.0 9.35 -5.0 8.9 -5.0 8.75 -4.9 8.75 -4.8 8.5 -4.65 7.5 -4.0 7.25 -3.8 6.55 -3.15 6.35 -2.95 6.0 -2.7 5.65 -2.45 5.4 -2.3 4.75 -1.95 4.4 -1.8 3.55 -1.6 2.7 -1.5 1.15 -1.4 M-0.15 -1.4 L-0.1 -3.25 0.0 -4.95 0.15 -6.15" fill="none" stroke="#666666" stroke-linecap="round" stroke-linejoin="round" stroke-width="1.0"/>
  </g>
</svg>
