<?xml version="1.0" encoding="UTF-8" standalone="no"?>
<svg xmlns:ffdec="https://www.free-decompiler.com/flash" xmlns:xlink="http://www.w3.org/1999/xlink" ffdec:objectType="shape" height="515.0px" width="461.45px" xmlns="http://www.w3.org/2000/svg">
  <g transform="matrix(1.0, 0.0, 0.0, 1.0, 0.5, 0.0)">
    <path d="M459.95 444.5 L447.2 444.2 409.3 442.4 Q391.0 441.6 372.25 441.9 L333.25 442.2 294.25 442.2 257.3 442.05 Q244.5 441.95 232.95 445.35 214.3 450.85 195.3 452.3 L156.25 455.75 119.25 459.8 Q101.45 461.95 83.3 461.95 64.0 462.0 45.5 459.0 L21.0 455.2 Q9.2 453.5 0.0 453.5 L0.0 0.0 459.95 0.0 459.95 444.5" fill="#a7e2e2" fill-rule="evenodd" stroke="none"/>
    <path d="M0.0 453.5 Q9.2 453.5 21.0 455.2 L45.5 459.0 Q64.0 462.0 83.3 461.95 101.45 461.95 119.25 459.8 L156.25 455.75 195.3 452.3 Q214.3 450.85 232.95 445.35 244.5 441.95 257.3 442.05 L294.25 442.2 333.25 442.2 372.25 441.9 Q391.0 441.6 409.3 442.4 L447.2 444.2 459.95 444.5 459.95 470.9 460.0 470.9 460.0 478.9 459.95 478.9 0.0 478.9 0.0 470.9 0.0 453.5 M0.05 503.85 L0.0 503.85 0.0 488.9 0.0 496.9 459.95 496.9 459.95 488.9 460.0 488.9 460.0 515.0 0.0 515.0 0.0 503.9 0.05 503.9 447.0 503.9 447.0 503.85 0.05 503.85" fill="#ffffff" fill-rule="evenodd" stroke="none"/>
    <path d="M0.0 478.9 L459.95 478.9 459.95 488.9 459.95 496.9 0.0 496.9 0.0 488.9 0.0 478.9" fill="#cccccc" fill-rule="evenodd" stroke="none"/>
    <path d="M0.05 503.9 L0.05 503.85 447.0 503.85 447.0 503.9 0.05 503.9" fill="#ff0000" fill-opacity="0.0" fill-rule="evenodd" stroke="none"/>
    <path d="M285.15 442.2 L284.85 442.9 284.15 443.2 Q283.75 443.2 283.45 442.9 283.15 442.6 283.15 442.2 283.15 441.8 283.45 441.5 283.75 441.2 284.15 441.2 L284.85 441.5 285.15 442.2 M287.45 441.5 Q287.75 441.2 288.15 441.2 288.55 441.2 288.85 441.5 L289.15 442.2 288.85 442.9 288.15 443.2 287.45 442.9 Q287.15 442.6 287.15 442.2 287.15 441.8 287.45 441.5 M291.45 441.5 Q291.75 441.2 292.15 441.2 292.55 441.2 292.85 441.5 L293.15 442.2 292.85 442.9 292.15 443.2 291.45 442.9 Q291.15 442.6 291.15 442.2 291.15 441.8 291.45 441.5 M295.45 441.5 Q295.75 441.2 296.15 441.2 296.55 441.2 296.85 441.5 L297.15 442.2 296.85 442.9 296.15 443.2 295.45 442.9 Q295.15 442.6 295.15 442.2 295.15 441.8 295.45 441.5 M303.45 441.5 Q303.75 441.2 304.15 441.2 304.55 441.2 304.85 441.5 L305.15 442.2 304.85 442.9 304.15 443.2 Q303.75 443.2 303.45 442.9 303.15 442.6 303.15 442.2 303.15 441.8 303.45 441.5 M299.45 441.5 Q299.75 441.2 300.15 441.2 300.55 441.2 300.85 441.5 L301.15 442.2 300.85 442.9 300.15 443.2 Q299.75 443.2 299.45 442.9 299.15 442.6 299.15 442.2 299.15 441.8 299.45 441.5 M307.45 441.5 Q307.75 441.2 308.15 441.2 308.55 441.2 308.85 441.5 L309.15 442.2 308.85 442.9 308.15 443.2 Q307.75 443.2 307.45 442.9 307.15 442.6 307.15 442.2 307.15 441.8 307.45 441.5 M313.15 442.2 L312.85 442.9 312.15 443.2 Q311.75 443.2 311.45 442.9 L311.15 442.2 Q311.15 441.8 311.45 441.5 311.75 441.2 312.15 441.2 312.55 441.2 312.85 441.5 L313.15 442.2 M315.45 441.5 Q315.75 441.2 316.15 441.2 316.55 441.2 316.85 441.5 L317.15 442.2 316.85 442.9 316.15 443.2 Q315.75 443.2 315.45 442.9 315.15 442.6 315.15 442.2 315.15 441.8 315.45 441.5 M323.45 441.5 Q323.75 441.2 324.15 441.2 324.55 441.2 324.85 441.5 L325.15 442.2 324.85 442.9 Q324.55 443.2 324.15 443.2 L323.45 442.9 323.15 442.2 Q323.15 441.8 323.45 441.5 M319.45 441.5 Q319.75 441.2 320.15 441.2 320.55 441.2 320.85 441.5 L321.15 442.2 320.85 442.9 320.15 443.2 Q319.75 443.2 319.45 442.9 319.15 442.6 319.15 442.2 319.15 441.8 319.45 441.5 M245.0 442.25 L245.3 442.95 245.0 443.65 244.3 443.95 Q243.9 443.95 243.6 443.65 243.3 443.35 243.3 442.95 243.3 442.55 243.6 442.25 243.9 441.95 244.3 441.95 244.7 441.95 245.0 442.25 M247.25 442.45 Q247.25 442.05 247.55 441.75 247.85 441.45 248.25 441.45 248.65 441.45 248.95 441.75 L249.25 442.45 248.95 443.15 248.25 443.45 247.55 443.15 Q247.25 442.85 247.25 442.45 M251.55 441.45 Q251.85 441.15 252.25 441.15 252.65 441.15 252.95 441.45 L253.25 442.15 252.95 442.85 252.25 443.15 251.55 442.85 Q251.25 442.55 251.25 442.15 251.25 441.75 251.55 441.45 M255.5 441.35 Q255.8 441.05 256.2 441.05 256.6 441.05 256.9 441.35 L257.2 442.05 256.9 442.75 256.2 443.05 255.5 442.75 Q255.2 442.45 255.2 442.05 255.2 441.65 255.5 441.35 M259.5 441.35 Q259.8 441.05 260.2 441.05 260.6 441.05 260.9 441.35 L261.2 442.05 260.9 442.75 260.2 443.05 259.5 442.75 Q259.2 442.45 259.2 442.05 259.2 441.65 259.5 441.35 M268.2 441.15 Q268.6 441.15 268.9 441.45 L269.2 442.15 268.9 442.85 268.2 443.15 267.5 442.85 Q267.2 442.55 267.2 442.15 267.2 441.75 267.5 441.45 267.8 441.15 268.2 441.15 M265.2 442.15 L264.9 442.85 264.2 443.15 Q263.8 443.15 263.5 442.85 263.2 442.55 263.2 442.15 263.2 441.75 263.5 441.45 263.8 441.15 264.2 441.15 L264.9 441.45 265.2 442.15 M271.45 441.5 Q271.75 441.2 272.15 441.2 L272.85 441.5 273.15 442.2 272.85 442.9 272.15 443.2 Q271.75 443.2 271.45 442.9 271.15 442.6 271.15 442.2 271.15 441.8 271.45 441.5 M275.45 441.5 Q275.75 441.2 276.15 441.2 276.55 441.2 276.85 441.5 L277.15 442.2 276.85 442.9 276.15 443.2 275.45 442.9 Q275.15 442.6 275.15 442.2 275.15 441.8 275.45 441.5 M279.45 441.5 Q279.75 441.2 280.15 441.2 280.55 441.2 280.85 441.5 L281.15 442.2 280.85 442.9 280.15 443.2 279.45 442.9 Q279.15 442.6 279.15 442.2 279.15 441.8 279.45 441.5 M231.75 444.75 Q232.05 444.45 232.45 444.45 232.85 444.45 233.15 444.75 L233.45 445.45 233.15 446.15 Q232.85 446.45 232.45 446.45 L231.75 446.15 Q231.45 445.85 231.45 445.45 231.45 445.05 231.75 444.75 M237.1 443.75 L237.4 444.45 237.1 445.15 Q236.8 445.45 236.4 445.45 L235.7 445.15 Q235.4 444.85 235.4 444.45 235.4 444.05 235.7 443.75 236.0 443.45 236.4 443.45 236.8 443.45 237.1 443.75 M241.05 442.9 L241.35 443.6 241.05 444.3 240.35 444.6 Q239.95 444.6 239.65 444.3 239.35 444.0 239.35 443.6 239.35 443.2 239.65 442.9 239.95 442.6 240.35 442.6 240.75 442.6 241.05 442.9 M201.75 451.05 L202.05 451.75 201.75 452.45 201.05 452.75 Q200.65 452.75 200.35 452.45 200.05 452.15 200.05 451.75 200.05 451.35 200.35 451.05 200.65 450.75 201.05 450.75 201.45 450.75 201.75 451.05 M197.05 451.1 Q197.45 451.1 197.75 451.4 L198.05 452.1 197.75 452.8 197.05 453.1 Q196.65 453.1 196.35 452.8 196.05 452.5 196.05 452.1 196.05 451.7 196.35 451.4 196.65 451.1 197.05 451.1 M194.0 452.5 L193.7 453.2 193.0 453.5 192.3 453.2 Q192.0 452.9 192.0 452.5 192.0 452.1 192.3 451.8 192.6 451.5 193.0 451.5 193.4 451.5 193.7 451.8 L194.0 452.5 M184.3 452.4 Q184.6 452.1 185.0 452.1 L185.7 452.4 186.0 453.1 185.7 453.8 185.0 454.1 Q184.6 454.1 184.3 453.8 184.0 453.5 184.0 453.1 184.0 452.7 184.3 452.4 M188.3 452.1 Q188.6 451.8 189.0 451.8 189.4 451.8 189.7 452.1 L190.0 452.8 189.7 453.5 189.0 453.8 188.3 453.5 Q188.0 453.2 188.0 452.8 188.0 452.4 188.3 452.1 M177.0 452.75 Q177.4 452.75 177.7 453.05 L178.0 453.75 177.7 454.45 Q177.4 454.75 177.0 454.75 L176.3 454.45 Q176.0 454.15 176.0 453.75 176.0 453.35 176.3 453.05 176.6 452.75 177.0 452.75 M174.0 454.1 L173.7 454.8 173.0 455.1 Q172.6 455.1 172.3 454.8 172.0 454.5 172.0 454.1 172.0 453.7 172.3 453.4 172.6 453.1 173.0 453.1 173.4 453.1 173.7 453.4 L174.0 454.1 M181.7 452.7 L182.0 453.4 181.7 454.1 Q181.4 454.4 181.0 454.4 L180.3 454.1 Q180.0 453.8 180.0 453.4 180.0 453.0 180.3 452.7 180.6 452.4 181.0 452.4 181.4 452.4 181.7 452.7 M164.3 454.15 Q164.6 453.85 165.0 453.85 165.4 453.85 165.7 454.15 L166.0 454.85 165.7 455.55 Q165.4 455.85 165.0 455.85 L164.3 455.55 Q164.0 455.25 164.0 454.85 164.0 454.45 164.3 454.15 M169.7 453.8 L170.0 454.5 169.7 455.2 169.0 455.5 Q168.6 455.5 168.3 455.2 168.0 454.9 168.0 454.5 168.0 454.1 168.3 453.8 168.6 453.5 169.0 453.5 169.4 453.5 169.7 453.8 M229.65 446.5 L229.35 447.2 228.65 447.5 Q228.25 447.5 227.95 447.2 227.65 446.9 227.65 446.5 227.65 446.1 227.95 445.8 228.25 445.5 228.65 445.5 229.05 445.5 229.35 445.8 L229.65 446.5 M224.05 446.85 Q224.35 446.55 224.75 446.55 225.15 446.55 225.45 446.85 L225.75 447.55 225.45 448.25 224.75 448.55 224.05 448.25 Q223.75 447.95 223.75 447.55 223.75 447.15 224.05 446.85 M221.6 447.75 L221.9 448.45 221.6 449.15 Q221.3 449.45 220.9 449.45 L220.2 449.15 Q219.9 448.85 219.9 448.45 219.9 448.05 220.2 447.75 220.5 447.45 220.9 447.45 221.3 447.45 221.6 447.75 M218.05 449.3 L217.75 450.0 Q217.45 450.3 217.05 450.3 L216.35 450.0 216.05 449.3 Q216.05 448.9 216.35 448.6 216.65 448.3 217.05 448.3 217.45 448.3 217.75 448.6 L218.05 449.3 M214.05 450.05 L213.75 450.75 213.05 451.05 Q212.65 451.05 212.35 450.75 212.05 450.45 212.05 450.05 212.05 449.65 212.35 449.35 212.65 449.05 213.05 449.05 213.45 449.05 213.75 449.35 L214.05 450.05 M208.35 450.0 Q208.65 449.7 209.05 449.7 209.45 449.7 209.75 450.0 L210.05 450.7 209.75 451.4 209.05 451.7 Q208.65 451.7 208.35 451.4 208.05 451.1 208.05 450.7 208.05 450.3 208.35 450.0 M204.35 450.55 Q204.65 450.25 205.05 450.25 205.45 450.25 205.75 450.55 L206.05 451.25 205.75 451.95 205.05 452.25 Q204.65 452.25 204.35 451.95 L204.05 451.25 Q204.05 450.85 204.35 450.55 M109.75 460.15 L110.05 460.85 109.75 461.55 109.05 461.85 Q108.65 461.85 108.35 461.55 108.05 461.25 108.05 460.85 108.05 460.45 108.35 460.15 108.65 459.85 109.05 459.85 109.45 459.85 109.75 460.15 M105.75 460.45 L106.05 461.15 105.75 461.85 105.05 462.15 104.35 461.85 Q104.05 461.55 104.05 461.15 104.05 460.75 104.35 460.45 104.65 460.15 105.05 460.15 105.45 460.15 105.75 460.45 M101.75 462.1 L101.05 462.4 100.35 462.1 Q100.05 461.8 100.05 461.4 100.05 461.0 100.35 460.7 100.65 460.4 101.05 460.4 101.45 460.4 101.75 460.7 L102.05 461.4 101.75 462.1 M118.05 460.05 L117.75 460.75 117.05 461.05 Q116.65 461.05 116.35 460.75 116.05 460.45 116.05 460.05 116.05 459.65 116.35 459.35 116.65 459.05 117.05 459.05 117.45 459.05 117.75 459.35 L118.05 460.05 M121.05 458.6 Q121.45 458.6 121.75 458.9 L122.05 459.6 121.75 460.3 121.05 460.6 Q120.65 460.6 120.35 460.3 L120.05 459.6 Q120.05 459.2 120.35 458.9 120.65 458.6 121.05 458.6 M112.35 459.8 Q112.65 459.5 113.05 459.5 113.45 459.5 113.75 459.8 L114.05 460.5 113.75 461.2 113.05 461.5 Q112.65 461.5 112.35 461.2 112.05 460.9 112.05 460.5 112.05 460.1 112.35 459.8 M89.75 461.2 L90.05 461.9 89.75 462.6 89.05 462.9 88.35 462.6 Q88.05 462.3 88.05 461.9 88.05 461.5 88.35 461.2 88.65 460.9 89.05 460.9 89.45 460.9 89.75 461.2 M82.0 461.95 L81.7 462.65 Q81.4 462.95 81.0 462.95 L80.3 462.65 Q80.0 462.35 80.0 461.95 80.0 461.55 80.3 461.25 80.6 460.95 81.0 460.95 81.4 460.95 81.7 461.25 L82.0 461.95 M85.05 462.95 L84.35 462.65 Q84.05 462.35 84.05 461.95 84.05 461.55 84.35 461.25 84.65 460.95 85.05 460.95 85.45 460.95 85.75 461.25 L86.05 461.95 85.75 462.65 85.05 462.95 M97.75 460.9 L98.05 461.6 97.75 462.3 97.05 462.6 96.35 462.3 Q96.05 462.0 96.05 461.6 96.05 461.2 96.35 460.9 96.65 460.6 97.05 460.6 97.45 460.6 97.75 460.9 M92.35 461.05 Q92.65 460.75 93.05 460.75 L93.75 461.05 94.05 461.75 93.75 462.45 93.05 462.75 Q92.65 462.75 92.35 462.45 92.05 462.15 92.05 461.75 92.05 461.35 92.35 461.05 M152.35 455.35 Q152.65 455.05 153.05 455.05 153.45 455.05 153.75 455.35 L154.05 456.05 153.75 456.75 153.05 457.05 Q152.65 457.05 152.35 456.75 152.05 456.45 152.05 456.05 152.05 455.65 152.35 455.35 M156.05 455.65 Q156.05 455.25 156.35 454.95 156.65 454.65 157.05 454.65 157.45 454.65 157.75 454.95 L158.05 455.65 157.75 456.35 Q157.45 456.65 157.05 456.65 L156.35 456.35 Q156.05 456.05 156.05 455.65 M161.0 454.25 Q161.4 454.25 161.7 454.55 L162.0 455.25 161.7 455.95 161.0 456.25 Q160.6 456.25 160.3 455.95 160.0 455.65 160.0 455.25 160.0 454.85 160.3 454.55 160.6 454.25 161.0 454.25 M142.05 457.3 L141.75 458.0 141.05 458.3 Q140.65 458.3 140.35 458.0 140.05 457.7 140.05 457.3 140.05 456.9 140.35 456.6 140.65 456.3 141.05 456.3 141.45 456.3 141.75 456.6 L142.05 457.3 M145.75 456.15 L146.05 456.85 145.75 457.55 Q145.45 457.85 145.05 457.85 L144.35 457.55 Q144.05 457.25 144.05 456.85 144.05 456.45 144.35 456.15 144.65 455.85 145.05 455.85 145.45 455.85 145.75 456.15 M149.75 455.75 L150.05 456.45 149.75 457.15 149.05 457.45 Q148.65 457.45 148.35 457.15 148.05 456.85 148.05 456.45 148.05 456.05 148.35 455.75 148.65 455.45 149.05 455.45 149.45 455.45 149.75 455.75 M133.05 457.2 Q133.45 457.2 133.75 457.5 L134.05 458.2 133.75 458.9 Q133.45 459.2 133.05 459.2 L132.35 458.9 132.05 458.2 Q132.05 457.8 132.35 457.5 132.65 457.2 133.05 457.2 M136.35 457.1 Q136.65 456.8 137.05 456.8 137.45 456.8 137.75 457.1 L138.05 457.8 137.75 458.5 137.05 458.8 Q136.65 458.8 136.35 458.5 136.05 458.2 136.05 457.8 136.05 457.4 136.35 457.1 M129.05 459.7 Q128.65 459.7 128.35 459.4 128.05 459.1 128.05 458.7 128.05 458.3 128.35 458.0 128.65 457.7 129.05 457.7 129.45 457.7 129.75 458.0 L130.05 458.7 129.75 459.4 129.05 459.7 M125.05 460.1 Q124.65 460.1 124.35 459.8 124.05 459.5 124.05 459.1 124.05 458.7 124.35 458.4 124.65 458.1 125.05 458.1 125.45 458.1 125.75 458.4 L126.05 459.1 125.75 459.8 125.05 460.1 M32.3 456.35 Q32.6 456.05 33.0 456.05 33.4 456.05 33.7 456.35 L34.0 457.05 33.7 457.75 33.0 458.05 32.3 457.75 Q32.0 457.45 32.0 457.05 32.0 456.65 32.3 456.35 M38.0 457.65 L37.7 458.35 37.0 458.65 36.3 458.35 Q36.0 458.05 36.0 457.65 36.0 457.25 36.3 456.95 36.6 456.65 37.0 456.65 37.4 456.65 37.7 456.95 L38.0 457.65 M21.9 455.2 L21.6 455.9 20.9 456.2 Q20.5 456.2 20.2 455.9 19.9 455.6 19.9 455.2 19.9 454.8 20.2 454.5 20.5 454.2 20.9 454.2 21.3 454.2 21.6 454.5 L21.9 455.2 M24.25 455.05 Q24.55 454.75 24.95 454.75 25.35 454.75 25.65 455.05 L25.95 455.75 25.65 456.45 24.95 456.75 Q24.55 456.75 24.25 456.45 23.95 456.15 23.95 455.75 23.95 455.35 24.25 455.05 M28.3 455.7 Q28.6 455.4 29.0 455.4 L29.7 455.7 30.0 456.4 29.7 457.1 29.0 457.4 Q28.6 457.4 28.3 457.1 28.0 456.8 28.0 456.4 28.0 456.0 28.3 455.7 M40.0 458.25 Q40.0 457.85 40.3 457.55 40.6 457.25 41.0 457.25 41.4 457.25 41.7 457.55 L42.0 458.25 41.7 458.95 41.0 459.25 40.3 458.95 Q40.0 458.65 40.0 458.25 M12.3 453.5 Q12.6 453.2 13.0 453.2 13.4 453.2 13.7 453.5 L14.0 454.2 13.7 454.9 Q13.4 455.2 13.0 455.2 L12.3 454.9 Q12.0 454.6 12.0 454.2 12.0 453.8 12.3 453.5 M16.25 453.95 Q16.55 453.65 16.95 453.65 17.35 453.65 17.65 453.95 L17.95 454.65 17.65 455.35 Q17.35 455.65 16.95 455.65 L16.25 455.35 Q15.95 455.05 15.95 454.65 15.95 454.25 16.25 453.95 M4.1 453.6 Q4.1 453.2 4.4 452.9 4.7 452.6 5.1 452.6 5.5 452.6 5.8 452.9 L6.1 453.6 5.8 454.3 5.1 454.6 Q4.7 454.6 4.4 454.3 4.1 454.0 4.1 453.6 M0.3 452.8 Q0.6 452.5 1.0 452.5 1.4 452.5 1.7 452.8 L2.0 453.5 1.7 454.2 1.0 454.5 Q0.6 454.5 0.3 454.2 0.0 453.9 0.0 453.5 0.0 453.1 0.3 452.8 M8.35 453.15 Q8.65 452.85 9.05 452.85 L9.75 453.15 10.05 453.85 9.75 454.55 9.05 454.85 Q8.65 454.85 8.35 454.55 8.05 454.25 8.05 453.85 8.05 453.45 8.35 453.15 M69.7 460.85 L70.0 461.55 69.7 462.25 Q69.4 462.55 69.0 462.55 L68.3 462.25 68.0 461.55 Q68.0 461.15 68.3 460.85 68.6 460.55 69.0 460.55 69.4 460.55 69.7 460.85 M65.7 460.6 L66.0 461.3 65.7 462.0 65.0 462.3 Q64.6 462.3 64.3 462.0 64.0 461.7 64.0 461.3 64.0 460.9 64.3 460.6 64.6 460.3 65.0 460.3 65.4 460.3 65.7 460.6 M61.7 460.3 L62.0 461.0 61.7 461.7 61.0 462.0 Q60.6 462.0 60.3 461.7 60.0 461.4 60.0 461.0 60.0 460.6 60.3 460.3 60.6 460.0 61.0 460.0 61.4 460.0 61.7 460.3 M76.3 461.2 Q76.6 460.9 77.0 460.9 77.4 460.9 77.7 461.2 L78.0 461.9 77.7 462.6 77.0 462.9 Q76.6 462.9 76.3 462.6 76.0 462.3 76.0 461.9 76.0 461.5 76.3 461.2 M72.3 461.05 Q72.6 460.75 73.0 460.75 73.4 460.75 73.7 461.05 L74.0 461.75 73.7 462.45 73.0 462.75 Q72.6 462.75 72.3 462.45 72.0 462.15 72.0 461.75 72.0 461.35 72.3 461.05 M50.0 459.55 L49.7 460.25 49.0 460.55 Q48.6 460.55 48.3 460.25 48.0 459.95 48.0 459.55 48.0 459.15 48.3 458.85 48.6 458.55 49.0 458.55 49.4 458.55 49.7 458.85 L50.0 459.55 M46.0 458.9 L45.7 459.6 45.0 459.9 Q44.6 459.9 44.3 459.6 44.0 459.3 44.0 458.9 44.0 458.5 44.3 458.2 44.6 457.9 45.0 457.9 45.4 457.9 45.7 458.2 L46.0 458.9 M56.3 459.9 Q56.6 459.6 57.0 459.6 57.4 459.6 57.7 459.9 L58.0 460.6 57.7 461.3 57.0 461.6 Q56.6 461.6 56.3 461.3 L56.0 460.6 Q56.0 460.2 56.3 459.9 M52.3 459.4 Q52.6 459.1 53.0 459.1 53.4 459.1 53.7 459.4 L54.0 460.1 53.7 460.8 53.0 461.1 Q52.6 461.1 52.3 460.8 52.0 460.5 52.0 460.1 52.0 459.7 52.3 459.4 M447.5 443.5 Q447.8 443.2 448.2 443.2 448.6 443.2 448.9 443.5 L449.2 444.2 448.9 444.9 448.2 445.2 Q447.8 445.2 447.5 444.9 447.2 444.6 447.2 444.2 447.2 443.8 447.5 443.5 M451.35 443.7 Q451.65 443.4 452.05 443.4 452.45 443.4 452.75 443.7 L453.05 444.4 452.75 445.1 452.05 445.4 Q451.65 445.4 451.35 445.1 451.05 444.8 451.05 444.4 451.05 444.0 451.35 443.7 M455.3 443.75 Q455.6 443.45 456.0 443.45 456.4 443.45 456.7 443.75 L457.0 444.45 456.7 445.15 456.0 445.45 Q455.6 445.45 455.3 445.15 L455.0 444.45 Q455.0 444.05 455.3 443.75 M460.65 443.8 L460.95 444.5 460.65 445.2 459.95 445.5 459.25 445.2 Q458.95 444.9 458.95 444.5 458.95 444.1 459.25 443.8 459.55 443.5 459.95 443.5 460.35 443.5 460.65 443.8 M407.5 441.7 Q407.8 441.4 408.2 441.4 408.6 441.4 408.9 441.7 L409.2 442.4 408.9 443.1 408.2 443.4 Q407.8 443.4 407.5 443.1 407.2 442.8 407.2 442.4 407.2 442.0 407.5 441.7 M412.9 441.8 L413.2 442.5 412.9 443.2 Q412.6 443.5 412.2 443.5 L411.5 443.2 Q411.2 442.9 411.2 442.5 411.2 442.1 411.5 441.8 411.8 441.5 412.2 441.5 412.6 441.5 412.9 441.8 M416.9 442.0 L417.2 442.7 416.9 443.4 Q416.6 443.7 416.2 443.7 L415.5 443.4 Q415.2 443.1 415.2 442.7 415.2 442.3 415.5 442.0 415.8 441.7 416.2 441.7 416.6 441.7 416.9 442.0 M419.2 442.85 Q419.2 442.45 419.5 442.15 419.8 441.85 420.2 441.85 L420.9 442.15 421.2 442.85 420.9 443.55 420.2 443.85 Q419.8 443.85 419.5 443.55 419.2 443.25 419.2 442.85 M424.9 442.35 L425.2 443.05 424.9 443.75 424.2 444.05 423.5 443.75 Q423.2 443.45 423.2 443.05 423.2 442.65 423.5 442.35 423.8 442.05 424.2 442.05 424.6 442.05 424.9 442.35 M427.5 442.55 Q427.8 442.25 428.2 442.25 428.6 442.25 428.9 442.55 L429.2 443.25 428.9 443.95 428.2 444.25 427.5 443.95 Q427.2 443.65 427.2 443.25 427.2 442.85 427.5 442.55 M432.9 442.75 L433.2 443.45 432.9 444.15 432.2 444.45 Q431.8 444.45 431.5 444.15 431.2 443.85 431.2 443.45 431.2 443.05 431.5 442.75 431.8 442.45 432.2 442.45 L432.9 442.75 M437.2 443.65 L436.9 444.35 436.2 444.65 435.5 444.35 Q435.2 444.05 435.2 443.65 435.2 443.25 435.5 442.95 435.8 442.65 436.2 442.65 436.6 442.65 436.9 442.95 L437.2 443.65 M440.2 442.85 Q440.6 442.85 440.9 443.15 L441.2 443.85 440.9 444.55 440.2 444.85 439.5 444.55 Q439.2 444.25 439.2 443.85 439.2 443.45 439.5 443.15 439.8 442.85 440.2 442.85 M443.5 443.35 Q443.8 443.05 444.2 443.05 444.6 443.05 444.9 443.35 L445.2 444.05 444.9 444.75 444.2 445.05 443.5 444.75 Q443.2 444.45 443.2 444.05 443.2 443.65 443.5 443.35 M368.85 441.3 L369.15 442.0 368.85 442.7 368.15 443.0 Q367.75 443.0 367.45 442.7 367.15 442.4 367.15 442.0 367.15 441.6 367.45 441.3 367.75 441.0 368.15 441.0 L368.85 441.3 M365.15 442.0 L364.85 442.7 364.15 443.0 363.45 442.7 Q363.15 442.4 363.15 442.0 363.15 441.6 363.45 441.3 363.75 441.0 364.15 441.0 364.55 441.0 364.85 441.3 L365.15 442.0 M372.85 441.2 L373.15 441.9 372.85 442.6 372.15 442.9 371.45 442.6 Q371.15 442.3 371.15 441.9 371.15 441.5 371.45 441.2 371.75 440.9 372.15 440.9 372.55 440.9 372.85 441.2 M379.55 441.2 Q379.85 440.9 380.25 440.9 380.65 440.9 380.95 441.2 L381.25 441.9 380.95 442.6 Q380.65 442.9 380.25 442.9 L379.55 442.6 Q379.25 442.3 379.25 441.9 379.25 441.5 379.55 441.2 M375.5 441.2 Q375.8 440.9 376.2 440.9 376.6 440.9 376.9 441.2 L377.2 441.9 376.9 442.6 376.2 442.9 Q375.8 442.9 375.5 442.6 L375.2 441.9 Q375.2 441.5 375.5 441.2 M383.55 441.2 Q383.85 440.9 384.25 440.9 384.65 440.9 384.95 441.2 L385.25 441.9 384.95 442.6 384.25 442.9 Q383.85 442.9 383.55 442.6 383.25 442.3 383.25 441.9 383.25 441.5 383.55 441.2 M388.95 441.2 L389.25 441.9 388.95 442.6 388.25 442.9 Q387.85 442.9 387.55 442.6 387.25 442.3 387.25 441.9 387.25 441.5 387.55 441.2 387.85 440.9 388.25 440.9 388.65 440.9 388.95 441.2 M392.95 441.25 L393.25 441.95 392.95 442.65 Q392.65 442.95 392.25 442.95 L391.55 442.65 Q391.25 442.35 391.25 441.95 391.25 441.55 391.55 441.25 391.85 440.95 392.25 440.95 392.65 440.95 392.95 441.25 M399.55 441.45 Q399.85 441.15 400.25 441.15 L400.95 441.45 401.25 442.15 400.95 442.85 400.25 443.15 Q399.85 443.15 399.55 442.85 399.25 442.55 399.25 442.15 399.25 441.75 399.55 441.45 M395.55 441.35 Q395.85 441.05 396.25 441.05 396.65 441.05 396.95 441.35 L397.25 442.05 396.95 442.75 Q396.65 443.05 396.25 443.05 L395.55 442.75 Q395.25 442.45 395.25 442.05 395.25 441.65 395.55 441.35 M403.5 441.55 Q403.8 441.25 404.2 441.25 404.6 441.25 404.9 441.55 L405.2 442.25 404.9 442.95 404.2 443.25 Q403.8 443.25 403.5 442.95 403.2 442.65 403.2 442.25 403.2 441.85 403.5 441.55 M328.85 441.5 L329.15 442.2 328.85 442.9 328.15 443.2 Q327.75 443.2 327.45 442.9 327.15 442.6 327.15 442.2 327.15 441.8 327.45 441.5 327.75 441.2 328.15 441.2 328.55 441.2 328.85 441.5 M332.85 441.5 L333.15 442.2 332.85 442.9 332.15 443.2 Q331.75 443.2 331.45 442.9 331.15 442.6 331.15 442.2 331.15 441.8 331.45 441.5 331.75 441.2 332.15 441.2 332.55 441.2 332.85 441.5 M335.45 441.5 Q335.75 441.2 336.15 441.2 336.55 441.2 336.85 441.5 L337.15 442.2 336.85 442.9 Q336.55 443.2 336.15 443.2 L335.45 442.9 Q335.15 442.6 335.15 442.2 335.15 441.8 335.45 441.5 M344.15 441.15 Q344.55 441.15 344.85 441.45 L345.15 442.15 344.85 442.85 344.15 443.15 Q343.75 443.15 343.45 442.85 343.15 442.55 343.15 442.15 343.15 441.75 343.45 441.45 343.75 441.15 344.15 441.15 M341.15 442.15 L340.85 442.85 340.15 443.15 Q339.75 443.15 339.45 442.85 339.15 442.55 339.15 442.15 339.15 441.75 339.45 441.45 339.75 441.15 340.15 441.15 340.55 441.15 340.85 441.45 L341.15 442.15 M348.85 441.4 L349.15 442.1 348.85 442.8 Q348.55 443.1 348.15 443.1 L347.45 442.8 Q347.15 442.5 347.15 442.1 347.15 441.7 347.45 441.4 347.75 441.1 348.15 441.1 348.55 441.1 348.85 441.4 M352.85 441.4 L353.15 442.1 352.85 442.8 Q352.55 443.1 352.15 443.1 L351.45 442.8 Q351.15 442.5 351.15 442.1 351.15 441.7 351.45 441.4 351.75 441.1 352.15 441.1 352.55 441.1 352.85 441.4 M355.45 441.35 Q355.75 441.05 356.15 441.05 L356.85 441.35 357.15 442.05 356.85 442.75 356.15 443.05 Q355.75 443.05 355.45 442.75 355.15 442.45 355.15 442.05 355.15 441.65 355.45 441.35 M361.15 442.05 L360.85 442.75 360.15 443.05 359.45 442.75 Q359.15 442.45 359.15 442.05 359.15 441.65 359.45 441.35 359.75 441.05 360.15 441.05 360.55 441.05 360.85 441.35 L361.15 442.05" fill="#0097a4" fill-rule="evenodd" stroke="none"/>
    <path d="M255.95 478.9 L249.95 478.9 M267.95 478.9 L261.95 478.9 M279.95 478.9 L273.95 478.9 M291.95 478.9 L285.95 478.9 M303.95 478.9 L297.95 478.9 M315.95 478.9 L309.95 478.9 M171.95 478.9 L165.95 478.9 M195.95 478.9 L189.95 478.9 M183.95 478.9 L177.95 478.9 M219.95 478.9 L213.95 478.9 M231.95 478.9 L225.95 478.9 M207.95 478.9 L201.95 478.9 M228.0 496.9 L234.0 496.9 M216.0 496.9 L222.0 496.9 M204.0 496.9 L210.0 496.9 M192.0 496.9 L198.0 496.9 M180.0 496.9 L186.0 496.9 M168.0 496.9 L174.0 496.9 M312.0 496.9 L318.0 496.9 M300.0 496.9 L306.0 496.9 M288.0 496.9 L294.0 496.9 M276.0 496.9 L282.0 496.9 M264.0 496.9 L270.0 496.9 M252.0 496.9 L258.0 496.9 M243.95 478.9 L237.95 478.9 M240.0 496.9 L246.0 496.9 M99.95 478.9 L93.95 478.9 M87.95 478.9 L81.95 478.9 M111.95 478.9 L105.95 478.9 M135.95 478.9 L129.95 478.9 M159.95 478.9 L153.95 478.9 M147.95 478.9 L141.95 478.9 M123.95 478.9 L117.95 478.9 M15.95 478.9 L9.95 478.9 M3.95 478.9 L0.0 478.9 M39.95 478.9 L33.95 478.9 M27.95 478.9 L21.95 478.9 M51.95 478.9 L45.95 478.9 M75.95 478.9 L69.95 478.9 M63.95 478.9 L57.95 478.9 M72.0 496.9 L78.0 496.9 M60.0 496.9 L66.0 496.9 M48.0 496.9 L54.0 496.9 M24.0 496.9 L30.0 496.9 M12.0 496.9 L18.0 496.9 M0.0 496.9 L6.0 496.9 M36.0 496.9 L42.0 496.9 M144.0 496.9 L150.0 496.9 M132.0 496.9 L138.0 496.9 M108.0 496.9 L114.0 496.9 M96.0 496.9 L102.0 496.9 M84.0 496.9 L90.0 496.9 M120.0 496.9 L126.0 496.9 M156.0 496.9 L162.0 496.9 M411.95 478.9 L405.95 478.9 M423.95 478.9 L417.95 478.9 M435.95 478.9 L429.95 478.9 M459.95 478.9 L453.95 478.9 M447.95 478.9 L441.95 478.9 M339.95 478.9 L333.95 478.9 M351.95 478.9 L345.95 478.9 M363.95 478.9 L357.95 478.9 M375.95 478.9 L369.95 478.9 M387.95 478.9 L381.95 478.9 M399.95 478.9 L393.95 478.9 M396.0 496.9 L402.0 496.9 M384.0 496.9 L390.0 496.9 M372.0 496.9 L378.0 496.9 M348.0 496.9 L354.0 496.9 M336.0 496.9 L342.0 496.9 M324.0 496.9 L330.0 496.9 M360.0 496.9 L366.0 496.9 M456.0 496.9 L459.95 496.9 M432.0 496.9 L438.0 496.9 M420.0 496.9 L426.0 496.9 M408.0 496.9 L414.0 496.9 M444.0 496.9 L450.0 496.9 M327.95 478.9 L321.95 478.9" fill="none" stroke="#666666" stroke-linecap="round" stroke-linejoin="round" stroke-width="1.0"/>
  </g>
</svg>
