<?xml version="1.0" encoding="UTF-8" standalone="no"?>
<svg xmlns:ffdec="https://www.free-decompiler.com/flash" xmlns:xlink="http://www.w3.org/1999/xlink" ffdec:objectType="shape" height="481.0px" width="45.2px" xmlns="http://www.w3.org/2000/svg">
  <g transform="matrix(1.0, 0.0, 0.0, 1.0, 0.55, 480.5)">
    <path d="M44.15 -480.0 L44.15 0.0 -0.05 0.0 -0.05 -480.0 44.15 -480.0" fill="#ffffff" fill-opacity="0.4509804" fill-rule="evenodd" stroke="none"/>
    <path d="M44.15 -480.0 L44.15 0.0 -0.05 0.0 -0.05 -480.0 44.15 -480.0 Z" fill="none" stroke="#999999" stroke-linecap="round" stroke-linejoin="round" stroke-width="1.0"/>
    <path d="M0.0 -4.0 L5.0 -4.0 M0.0 -8.0 L5.0 -8.0 M0.0 -12.0 L5.0 -12.0 M0.0 -16.0 L5.0 -16.0 M0.0 -24.0 L5.0 -24.0 M0.0 -28.0 L5.0 -28.0 M0.0 -32.0 L5.0 -32.0 M0.0 -36.0 L5.0 -36.0 M0.0 -20.0 L7.0 -20.0 M0.0 -40.0 L10.0 -40.0" fill="none" stroke="#000000" stroke-linecap="round" stroke-linejoin="round" stroke-width="1.0"/>
    <path d="M0.0 0.0 L10.0 0.0" fill="none" stroke="#010101" stroke-linecap="round" stroke-linejoin="round" stroke-opacity="0.0" stroke-width="1.0"/>
    <path d="M0.0 -80.0 L10.0 -80.0 M0.0 -76.0 L5.0 -76.0 M0.0 -72.0 L5.0 -72.0 M0.0 -68.0 L5.0 -68.0 M0.0 -64.0 L5.0 -64.0 M0.0 -60.0 L7.0 -60.0 M0.0 -56.0 L5.0 -56.0 M0.0 -52.0 L5.0 -52.0 M0.0 -48.0 L5.0 -48.0 M0.0 -44.0 L5.0 -44.0" fill="none" stroke="#000000" stroke-linecap="round" stroke-linejoin="round" stroke-width="1.0"/>
    <path d="M0.0 -40.0 L10.0 -40.0" fill="none" stroke="#010101" stroke-linecap="round" stroke-linejoin="round" stroke-opacity="0.0" stroke-width="1.0"/>
    <path d="M0.0 -120.0 L10.0 -120.0 M0.0 -116.0 L5.0 -116.0 M0.0 -112.0 L5.0 -112.0 M0.0 -108.0 L5.0 -108.0 M0.0 -104.0 L5.0 -104.0 M0.0 -100.0 L7.0 -100.0 M0.0 -96.0 L5.0 -96.0 M0.0 -92.0 L5.0 -92.0 M0.0 -88.0 L5.0 -88.0 M0.0 -84.0 L5.0 -84.0" fill="none" stroke="#000000" stroke-linecap="round" stroke-linejoin="round" stroke-width="1.0"/>
    <path d="M0.0 -80.0 L10.0 -80.0" fill="none" stroke="#010101" stroke-linecap="round" stroke-linejoin="round" stroke-opacity="0.0" stroke-width="1.0"/>
    <path d="M0.0 -160.0 L10.0 -160.0 M0.0 -156.0 L5.0 -156.0 M0.0 -152.0 L5.0 -152.0 M0.0 -148.0 L5.0 -148.0 M0.0 -144.0 L5.0 -144.0 M0.0 -140.0 L7.0 -140.0 M0.0 -136.0 L5.0 -136.0 M0.0 -132.0 L5.0 -132.0 M0.0 -128.0 L5.0 -128.0 M0.0 -124.0 L5.0 -124.0" fill="none" stroke="#000000" stroke-linecap="round" stroke-linejoin="round" stroke-width="1.0"/>
    <path d="M0.0 -120.0 L10.0 -120.0" fill="none" stroke="#010101" stroke-linecap="round" stroke-linejoin="round" stroke-opacity="0.0" stroke-width="1.0"/>
    <path d="M0.0 -200.0 L10.0 -200.0 M0.0 -196.0 L5.0 -196.0 M0.0 -192.0 L5.0 -192.0 M0.0 -188.0 L5.0 -188.0 M0.0 -184.0 L5.0 -184.0 M0.0 -180.0 L7.0 -180.0 M0.0 -176.0 L5.0 -176.0 M0.0 -172.0 L5.0 -172.0 M0.0 -168.0 L5.0 -168.0 M0.0 -164.0 L5.0 -164.0" fill="none" stroke="#000000" stroke-linecap="round" stroke-linejoin="round" stroke-width="1.0"/>
    <path d="M0.0 -160.0 L10.0 -160.0" fill="none" stroke="#010101" stroke-linecap="round" stroke-linejoin="round" stroke-opacity="0.0" stroke-width="1.0"/>
    <path d="M0.0 -240.0 L10.0 -240.0 M0.0 -236.0 L5.0 -236.0 M0.0 -232.0 L5.0 -232.0 M0.0 -228.0 L5.0 -228.0 M0.0 -224.0 L5.0 -224.0 M0.0 -220.0 L7.0 -220.0 M0.0 -216.0 L5.0 -216.0 M0.0 -212.0 L5.0 -212.0 M0.0 -208.0 L5.0 -208.0 M0.0 -204.0 L5.0 -204.0" fill="none" stroke="#000000" stroke-linecap="round" stroke-linejoin="round" stroke-width="1.0"/>
    <path d="M0.0 -200.0 L10.0 -200.0" fill="none" stroke="#010101" stroke-linecap="round" stroke-linejoin="round" stroke-opacity="0.0" stroke-width="1.0"/>
    <path d="M0.0 -260.0 L7.0 -260.0 M0.0 -264.0 L5.0 -264.0 M0.0 -268.0 L5.0 -268.0 M0.0 -272.0 L5.0 -272.0 M0.0 -276.0 L5.0 -276.0 M0.0 -280.0 L10.0 -280.0 M0.0 -244.0 L5.0 -244.0 M0.0 -248.0 L5.0 -248.0 M0.0 -252.0 L5.0 -252.0 M0.0 -256.0 L5.0 -256.0" fill="none" stroke="#000000" stroke-linecap="round" stroke-linejoin="round" stroke-width="1.0"/>
    <path d="M0.0 -240.0 L10.0 -240.0" fill="none" stroke="#010101" stroke-linecap="round" stroke-linejoin="round" stroke-opacity="0.0" stroke-width="1.0"/>
    <path d="M0.0 -300.0 L7.0 -300.0 M0.0 -304.0 L5.0 -304.0 M0.0 -308.0 L5.0 -308.0 M0.0 -312.0 L5.0 -312.0 M0.0 -316.0 L5.0 -316.0 M0.0 -320.0 L10.0 -320.0 M0.0 -284.0 L5.0 -284.0 M0.0 -288.0 L5.0 -288.0 M0.0 -292.0 L5.0 -292.0 M0.0 -296.0 L5.0 -296.0" fill="none" stroke="#000000" stroke-linecap="round" stroke-linejoin="round" stroke-width="1.0"/>
    <path d="M0.0 -280.0 L10.0 -280.0" fill="none" stroke="#010101" stroke-linecap="round" stroke-linejoin="round" stroke-opacity="0.0" stroke-width="1.0"/>
    <path d="M0.05 -340.0 L7.05 -340.0 M0.05 -344.0 L5.05 -344.0 M0.05 -348.0 L5.05 -348.0 M0.05 -352.0 L5.05 -352.0 M0.05 -356.0 L5.05 -356.0 M0.05 -360.0 L10.05 -360.0 M0.05 -324.0 L5.05 -324.0 M0.05 -328.0 L5.05 -328.0 M0.05 -332.0 L5.05 -332.0 M0.05 -336.0 L5.05 -336.0" fill="none" stroke="#000000" stroke-linecap="round" stroke-linejoin="round" stroke-width="1.0"/>
    <path d="M0.05 -320.0 L10.05 -320.0" fill="none" stroke="#010101" stroke-linecap="round" stroke-linejoin="round" stroke-opacity="0.0" stroke-width="1.0"/>
    <path d="M0.05 -380.0 L7.05 -380.0 M0.05 -384.0 L5.05 -384.0 M0.05 -388.0 L5.05 -388.0 M0.05 -392.0 L5.05 -392.0 M0.05 -396.0 L5.05 -396.0 M0.05 -400.0 L10.05 -400.0 M0.05 -364.0 L5.05 -364.0 M0.05 -368.0 L5.05 -368.0 M0.05 -372.0 L5.05 -372.0 M0.05 -376.0 L5.05 -376.0" fill="none" stroke="#000000" stroke-linecap="round" stroke-linejoin="round" stroke-width="1.0"/>
    <path d="M0.05 -360.0 L10.05 -360.0" fill="none" stroke="#010101" stroke-linecap="round" stroke-linejoin="round" stroke-opacity="0.0" stroke-width="1.0"/>
    <path d="M0.1 -440.0 L10.1 -440.0 M0.1 -436.0 L5.1 -436.0 M0.1 -432.0 L5.1 -432.0 M0.1 -428.0 L5.1 -428.0 M0.1 -424.0 L5.1 -424.0 M0.1 -420.0 L7.1 -420.0 M0.1 -416.0 L5.1 -416.0 M0.1 -412.0 L5.1 -412.0 M0.1 -408.0 L5.1 -408.0 M0.1 -404.0 L5.1 -404.0" fill="none" stroke="#000000" stroke-linecap="round" stroke-linejoin="round" stroke-width="1.0"/>
    <path d="M0.1 -400.0 L10.1 -400.0" fill="none" stroke="#010101" stroke-linecap="round" stroke-linejoin="round" stroke-opacity="0.0" stroke-width="1.0"/>
    <path d="M0.1 -460.0 L7.1 -460.0 M0.1 -464.0 L5.1 -464.0 M0.1 -468.0 L5.1 -468.0 M0.1 -448.0 L5.1 -448.0 M0.1 -452.0 L5.1 -452.0 M0.1 -456.0 L5.1 -456.0 M0.1 -472.0 L5.1 -472.0 M0.1 -476.0 L5.1 -476.0 M0.1 -444.0 L5.1 -444.0" fill="none" stroke="#000000" stroke-linecap="round" stroke-linejoin="round" stroke-width="1.0"/>
    <path d="M0.1 -440.0 L10.1 -440.0" fill="none" stroke="#010101" stroke-linecap="round" stroke-linejoin="round" stroke-opacity="0.0" stroke-width="1.0"/>
  </g>
</svg>
