<?xml version="1.0" encoding="UTF-8" standalone="no"?>
<svg xmlns:ffdec="https://www.free-decompiler.com/flash" xmlns:xlink="http://www.w3.org/1999/xlink" ffdec:objectType="shape" height="44.35px" width="38.8px" xmlns="http://www.w3.org/2000/svg">
  <g transform="matrix(1.0, 0.0, 0.0, 1.0, 17.9, 42.5)">
    <path d="M6.95 -35.75 L10.95 -33.85 Q11.8 -33.35 11.25 -32.5 10.45 -31.3 9.4 -30.75 10.15 -29.7 10.1 -28.25 L17.0 -24.45 Q17.7 -24.05 17.3 -23.35 16.3 -21.4 14.7 -21.05 L14.95 -20.75 15.3 -20.35 Q19.05 -19.6 18.9 -17.45 16.8 -18.75 14.05 -18.0 L14.05 -17.9 13.4 -17.8 13.15 -17.75 12.8 -17.45 12.8 -17.4 12.5 -17.7 Q8.0 -20.45 2.55 -21.0 L2.55 -20.9 1.9 -20.8 1.65 -20.75 1.0 -20.05 Q0.65 -19.55 0.7 -19.0 L0.8 -18.25 Q1.45 -17.35 2.55 -17.15 L3.55 -16.95 Q1.7 -16.45 -0.45 -17.0 -1.85 -16.85 -2.35 -15.6 L-2.3 -14.5 -2.2 -13.75 -2.6 -13.8 -2.95 -14.4 Q-4.75 -16.5 -7.95 -15.5 L-7.95 -15.4 -8.55 -15.3 -8.85 -15.25 -9.2 -14.95 Q-10.0 -14.25 -9.8 -13.1 L-9.7 -12.75 Q-9.05 -11.85 -8.0 -11.55 L-7.75 -11.45 -7.7 -11.25 Q-7.25 -10.85 -6.8 -10.8 L-1.65 -10.4 -1.7 -9.25 -1.3 -8.9 Q-1.7 -8.5 -1.7 -7.85 L-1.75 -5.45 -1.9 -5.5 Q-2.9 -5.9 -3.55 -6.4 -7.45 -4.15 -11.85 -6.6 -13.45 -7.5 -12.4 -9.05 -11.35 -10.55 -9.65 -11.05 -10.85 -11.4 -11.2 -12.15 L-12.55 -11.15 Q-13.7 -10.35 -14.85 -11.15 -17.9 -13.3 -14.85 -15.8 L-14.75 -15.85 Q-16.25 -16.1 -17.45 -17.25 -18.15 -17.9 -17.65 -18.75 L-16.4 -20.25 Q-17.0 -21.45 -16.45 -23.5 L-16.25 -24.05 -16.85 -24.5 Q-19.05 -26.5 -16.6 -28.4 -13.1 -31.1 -9.15 -33.0 L-9.5 -32.95 Q-11.25 -32.7 -11.75 -34.4 -12.35 -36.25 -10.6 -37.35 L-9.45 -37.55 -9.45 -37.6 -8.85 -37.65 -8.8 -37.1 -8.7 -36.75 Q-8.25 -36.35 -7.8 -36.3 L-4.95 -36.35 -7.35 -34.1 -7.3 -33.0 -7.2 -32.25 -6.0 -31.55 Q-8.1 -30.7 -9.35 -28.6 L-9.35 -27.85 -9.3 -27.2 -10.45 -28.0 -10.45 -27.9 Q-14.45 -28.05 -14.2 -24.75 -12.7 -23.2 -10.65 -24.1 -8.45 -25.1 -8.6 -26.15 L-6.75 -26.25 Q-4.4 -27.85 -2.35 -29.6 -1.0 -28.75 0.75 -28.75 L2.7 -27.3 2.55 -27.25 -3.95 -27.5 -3.95 -27.4 -4.6 -27.3 -4.85 -27.25 -5.2 -26.95 Q-6.0 -26.25 -5.8 -25.1 L-5.7 -24.75 Q-5.25 -24.35 -4.8 -24.3 L-3.2 -24.15 -3.9 -23.9 Q-5.4 -23.3 -6.2 -22.3 L-6.5 -22.15 -7.45 -22.5 -7.45 -22.4 -8.05 -22.3 -8.35 -22.25 -8.7 -21.95 -8.95 -21.6 Q-11.0 -22.55 -13.95 -22.0 L-13.95 -21.9 -14.55 -21.8 -14.85 -21.75 Q-15.7 -21.3 -15.8 -20.35 L-15.8 -20.0 -15.7 -19.25 Q-11.55 -16.4 -8.3 -18.05 -7.15 -17.55 -6.15 -17.6 -2.3 -15.8 -0.1 -18.85 -0.05 -19.45 -0.5 -19.65 L-1.55 -20.15 Q-0.2 -20.95 0.85 -22.45 L2.1 -22.55 5.05 -23.2 6.45 -23.35 Q6.0 -22.6 6.3 -21.75 8.85 -19.5 10.35 -22.15 10.8 -21.75 11.5 -21.55 15.45 -20.4 16.9 -23.35 L16.55 -24.4 Q14.75 -26.5 11.55 -25.5 L11.55 -25.4 10.9 -25.3 10.65 -25.25 10.3 -24.95 Q9.85 -24.55 9.75 -24.0 L8.75 -24.45 9.9 -25.85 9.85 -26.2 Q9.2 -28.15 7.3 -28.25 L7.4 -28.35 7.35 -28.65 5.45 -30.65 Q8.5 -30.2 10.9 -32.85 L10.85 -33.15 Q9.45 -35.1 7.05 -35.3 L6.95 -35.75 M19.55 -15.05 Q22.3 -13.7 19.55 -10.7 19.15 -10.3 18.55 -10.25 L12.75 -9.95 13.4 -9.7 Q13.8 -9.55 13.75 -9.0 13.55 -5.15 9.0 -5.95 6.85 -6.35 5.35 -7.3 5.2 -6.75 4.5 -6.2 3.9 -5.75 3.3 -5.45 L2.4 -7.35 2.4 -7.7 2.2 -8.3 2.9 -8.6 Q4.5 -9.3 4.8 -10.1 9.55 -9.6 14.55 -10.2 16.0 -10.4 16.4 -11.85 L16.3 -12.6 Q16.1 -13.35 15.4 -13.45 L6.05 -14.0 5.75 -14.0 6.35 -14.6 10.55 -14.4 Q11.75 -14.4 12.25 -15.4 L12.3 -15.25 Q14.6 -13.15 18.1 -14.05 19.05 -14.3 19.55 -15.05 M-2.3 -41.2 L-2.1 -41.35 -1.7 -41.45 -1.65 -41.45 -1.7 -41.35 -1.7 -41.0 -2.3 -41.2 M2.05 -34.1 L2.4 -34.05 2.25 -33.75 2.05 -34.1 M-2.35 -32.75 L-2.4 -32.7 -2.2 -33.25 -2.1 -33.6 -1.6 -34.0 -1.2 -34.45 -1.4 -33.75 -1.6 -33.35 -2.15 -32.95 -2.35 -32.75 M-3.05 -32.0 L-3.2 -31.75 -3.35 -31.8 -3.05 -32.0 M-0.2 -35.25 L-1.05 -34.7 -0.6 -35.65 -0.2 -35.25" fill="#003300" fill-rule="evenodd" stroke="none"/>
    <path d="M18.9 -17.45 L19.3 -17.2 Q19.95 -16.7 19.9 -15.85 L19.55 -15.05 Q19.05 -14.3 18.1 -14.05 14.6 -13.15 12.3 -15.25 L12.25 -15.4 12.4 -15.85 Q12.45 -16.7 11.8 -17.15 9.35 -19.0 6.05 -18.0 L6.05 -17.9 5.4 -17.8 5.15 -17.75 4.8 -17.45 4.65 -17.3 3.55 -16.95 2.55 -17.15 Q1.45 -17.35 0.8 -18.25 L0.7 -19.0 Q0.65 -19.55 1.0 -20.05 L1.65 -20.75 1.9 -20.8 2.55 -20.9 2.55 -21.0 Q8.0 -20.45 12.5 -17.7 L12.8 -17.4 12.8 -17.45 13.15 -17.75 13.4 -17.8 14.05 -17.9 14.05 -18.0 Q16.8 -18.75 18.9 -17.45 M2.4 -34.05 L6.35 -34.2 Q7.1 -34.35 7.05 -35.05 L7.05 -35.3 Q9.45 -35.1 10.85 -33.15 L10.9 -32.85 Q8.5 -30.2 5.45 -30.65 L7.35 -28.65 7.4 -28.35 7.3 -28.25 5.55 -28.0 4.25 -27.75 2.7 -27.3 0.75 -28.75 2.6 -29.05 Q4.0 -29.4 4.4 -30.85 4.45 -31.7 3.8 -32.2 1.6 -33.85 -1.45 -33.0 L-1.45 -32.9 -2.1 -32.8 -2.35 -32.75 -2.15 -32.95 -1.6 -33.35 -1.4 -33.75 -1.2 -34.45 -1.6 -34.0 -2.1 -33.6 -2.2 -33.25 -2.4 -32.7 -2.7 -32.45 -3.05 -32.0 -3.35 -31.8 -3.2 -31.75 -3.3 -30.6 -3.2 -30.25 -2.35 -29.6 Q-4.4 -27.85 -6.75 -26.25 L-8.6 -26.15 Q-8.45 -25.1 -10.65 -24.1 -12.7 -23.2 -14.2 -24.75 -14.45 -28.05 -10.45 -27.9 L-10.45 -28.0 -9.3 -27.2 -9.35 -27.85 -9.35 -28.6 Q-8.1 -30.7 -6.0 -31.55 L-7.2 -32.25 -7.3 -33.0 -7.35 -34.1 -4.95 -36.35 Q-3.25 -36.6 -1.8 -37.5 L-0.6 -35.65 -1.05 -34.7 -0.2 -35.25 Q0.75 -34.45 2.05 -34.1 L2.25 -33.75 2.4 -34.05 M2.55 -27.25 Q-0.1 -26.1 -0.2 -23.25 0.25 -22.6 0.85 -22.45 -0.2 -20.95 -1.55 -20.15 L-0.5 -19.65 Q-0.05 -19.45 -0.1 -18.85 -2.3 -15.8 -6.15 -17.6 -4.0 -17.85 -2.6 -20.85 L-2.6 -21.2 Q-2.85 -22.75 -4.45 -23.0 L-6.2 -22.3 Q-5.4 -23.3 -3.9 -23.9 L-3.2 -24.15 -4.8 -24.3 Q-5.25 -24.35 -5.7 -24.75 L-5.8 -25.1 Q-6.0 -26.25 -5.2 -26.95 L-4.85 -27.25 -4.6 -27.3 -3.95 -27.4 -3.95 -27.5 2.55 -27.25 M6.45 -23.35 Q7.8 -23.7 8.75 -24.45 L9.75 -24.0 Q9.85 -24.55 10.3 -24.95 L10.65 -25.25 10.9 -25.3 11.55 -25.4 11.55 -25.5 Q14.75 -26.5 16.55 -24.4 L16.9 -23.35 Q15.45 -20.4 11.5 -21.55 10.8 -21.75 10.35 -22.15 8.85 -19.5 6.3 -21.75 6.0 -22.6 6.45 -23.35 M5.75 -14.0 L6.05 -14.0 15.4 -13.45 Q16.1 -13.35 16.3 -12.6 L16.4 -11.85 Q16.0 -10.4 14.55 -10.2 9.55 -9.6 4.8 -10.1 4.5 -9.3 2.9 -8.6 L2.2 -8.3 Q1.65 -9.55 0.05 -9.5 L0.05 -9.4 -0.6 -9.3 -0.85 -9.25 -1.3 -8.9 -1.7 -9.25 -1.65 -10.4 1.05 -10.4 Q2.5 -10.4 2.9 -11.85 L2.85 -12.5 Q4.4 -12.75 5.75 -14.0 M-8.3 -18.05 Q-11.55 -16.4 -15.7 -19.25 L-15.8 -20.0 -15.8 -20.35 Q-15.7 -21.3 -14.85 -21.75 L-14.55 -21.8 -13.95 -21.9 -13.95 -22.0 Q-11.0 -22.55 -8.95 -21.6 L-8.7 -21.95 -8.35 -22.25 -8.05 -22.3 -7.45 -22.4 -7.45 -22.5 -6.5 -22.15 Q-8.55 -20.9 -8.7 -18.25 L-8.3 -18.05 M-7.75 -11.45 L-8.0 -11.55 Q-9.05 -11.85 -9.7 -12.75 L-9.8 -13.1 Q-10.0 -14.25 -9.2 -14.95 L-8.85 -15.25 -8.55 -15.3 -7.95 -15.4 -7.95 -15.5 Q-4.75 -16.5 -2.95 -14.4 L-2.6 -13.8 -5.95 -14.0 -5.95 -13.9 -6.55 -13.8 -6.85 -13.75 -7.2 -13.45 Q-8.0 -12.75 -7.8 -11.6 L-7.75 -11.45" fill="#336600" fill-rule="evenodd" stroke="none"/>
    <path d="M-1.65 -41.45 Q-1.3 -42.1 -0.55 -42.3 L0.05 -42.5 2.4 -41.65 3.05 -41.3 4.65 -40.1 Q6.4 -38.4 6.95 -35.75 L7.05 -35.3 7.05 -35.05 Q7.1 -34.35 6.35 -34.2 L2.4 -34.05 2.05 -34.1 Q0.75 -34.45 -0.2 -35.25 L-0.6 -35.65 -1.8 -37.5 Q-3.25 -36.6 -4.95 -36.35 L-7.8 -36.3 Q-8.25 -36.35 -8.7 -36.75 L-8.8 -37.1 -8.85 -37.65 -8.85 -37.85 -8.85 -38.6 Q-8.3 -39.6 -7.25 -40.1 L-6.6 -40.35 -4.45 -41.0 -2.3 -41.2 -1.7 -41.0 -1.7 -41.35 -1.65 -41.45 M2.7 -27.3 L4.25 -27.75 5.55 -28.0 7.3 -28.25 Q9.2 -28.15 9.85 -26.2 L9.9 -25.85 8.75 -24.45 Q7.8 -23.7 6.45 -23.35 L5.05 -23.2 2.1 -22.55 0.85 -22.45 Q0.25 -22.6 -0.2 -23.25 -0.1 -26.1 2.55 -27.25 L2.7 -27.3 M-2.35 -32.75 L-2.1 -32.8 -1.45 -32.9 -1.45 -33.0 Q1.6 -33.85 3.8 -32.2 4.45 -31.7 4.4 -30.85 4.0 -29.4 2.6 -29.05 L0.75 -28.75 Q-1.0 -28.75 -2.35 -29.6 L-3.2 -30.25 -3.3 -30.6 -3.2 -31.75 -3.05 -32.0 -2.7 -32.45 -2.4 -32.7 -2.35 -32.75 M3.55 -16.95 L4.65 -17.3 4.8 -17.45 5.15 -17.75 5.4 -17.8 6.05 -17.9 6.05 -18.0 Q9.35 -19.0 11.8 -17.15 12.45 -16.7 12.4 -15.85 L12.25 -15.4 Q11.75 -14.4 10.55 -14.4 L6.35 -14.6 5.75 -14.0 Q4.4 -12.75 2.85 -12.5 L2.9 -11.85 Q2.5 -10.4 1.05 -10.4 L-1.65 -10.4 -6.8 -10.8 Q-7.25 -10.85 -7.7 -11.25 L-7.75 -11.45 -7.8 -11.6 Q-8.0 -12.75 -7.2 -13.45 L-6.85 -13.75 -6.55 -13.8 -5.95 -13.9 -5.95 -14.0 -2.6 -13.8 -2.2 -13.75 -2.3 -14.5 -2.35 -15.6 Q-1.85 -16.85 -0.45 -17.0 1.7 -16.45 3.55 -16.95 M-6.2 -22.3 L-4.45 -23.0 Q-2.85 -22.75 -2.6 -21.2 L-2.6 -20.85 Q-4.0 -17.85 -6.15 -17.6 -7.15 -17.55 -8.3 -18.05 L-8.7 -18.25 Q-8.55 -20.9 -6.5 -22.15 L-6.2 -22.3" fill="#5b8d07" fill-rule="evenodd" stroke="none"/>
    <path d="M3.3 -5.45 Q4.0 -3.35 3.5 -0.9 L3.4 0.15 Q1.5 3.25 -1.7 0.75 L-1.75 -5.45 -1.7 -7.85 Q-1.7 -8.5 -1.3 -8.9 L-0.85 -9.25 -0.6 -9.3 0.05 -9.4 0.05 -9.5 Q1.65 -9.55 2.2 -8.3 L2.4 -7.7 2.4 -7.35 3.3 -5.45" fill="#616336" fill-rule="evenodd" stroke="none"/>
  </g>
</svg>
