<?xml version="1.0" encoding="UTF-8" standalone="no"?>
<svg xmlns:ffdec="https://www.free-decompiler.com/flash" xmlns:xlink="http://www.w3.org/1999/xlink" ffdec:objectType="shape" height="83.2px" width="1310.9px" xmlns="http://www.w3.org/2000/svg">
  <g transform="matrix(1.0, 0.0, 0.0, 1.0, 651.5, 41.55)">
    <path d="M658.9 -41.55 L658.9 41.45 -650.95 41.65 -651.0 -41.35 658.9 -41.55" fill="url(#gradient0)" fill-rule="evenodd" stroke="none"/>
    <path d="M658.9 0.75 L657.0 0.75 Q647.5 0.75 638.0 0.35 L618.55 -1.05 599.5 -3.65 Q590.6 -5.05 581.5 -4.9 L563.0 -4.75 544.5 -4.75 525.05 -5.85 506.0 -6.95 Q496.15 -7.0 486.55 -5.45 477.4 -3.95 468.35 -1.25 459.45 1.35 450.0 2.2 L430.95 3.25 430.45 3.3 414.95 4.55 Q405.45 5.1 395.55 4.0 386.2 3.0 377.0 0.1 367.95 -2.75 358.0 -2.5 L338.5 -2.25 319.5 -2.25 301.0 -2.25 282.0 -2.25 263.5 -2.25 245.0 -2.25 225.5 -2.25 206.5 -2.25 187.5 -1.95 168.9 -0.4 149.5 1.3 130.5 2.4 Q121.65 3.15 111.5 2.6 L92.0 1.3 73.5 0.65 54.1 -0.25 36.45 -1.95 17.0 -2.75 15.45 -2.75 Q6.5 -2.8 -2.5 -3.2 L-15.9 -2.5 -16.4 -2.4 -30.45 -1.8 -31.05 -1.75 -49.45 -0.7 Q-59.45 -0.35 -66.8 1.95 -72.95 3.85 -79.95 4.05 -89.55 4.35 -99.45 4.15 L-118.95 4.0 -137.95 4.0 -157.45 3.95 Q-167.3 3.95 -176.95 3.45 -186.8 2.95 -196.35 0.95 -205.75 -1.05 -215.4 -1.8 L-234.45 -2.8 -253.45 -3.0 -272.85 -2.1 -292.45 -1.35 -311.95 -1.5 -331.45 -1.25 -350.45 -0.6 Q-360.6 -0.1 -369.45 -1.05 -378.8 -2.05 -387.5 -3.75 L-387.9 -3.8 Q-398.4 -3.5 -407.95 -3.5 L-426.95 -3.5 -446.45 -3.45 -465.55 -2.05 -484.95 -1.15 Q-494.8 -1.6 -503.85 0.5 -512.75 2.55 -522.45 2.15 L-541.45 1.4 Q-551.2 1.0 -560.95 1.0 L-578.95 1.0 -598.45 1.0 -617.45 1.0 -636.45 1.0 -651.0 1.0 -650.95 -41.4 658.9 -41.45 658.9 0.75" fill="url(#gradient1)" fill-rule="evenodd" stroke="none"/>
    <path d="M-651.0 1.0 L-636.45 1.0 -617.45 1.0 -598.45 1.0 -578.95 1.0 -560.95 1.0 Q-551.2 1.0 -541.45 1.4 L-522.45 2.15 Q-512.75 2.55 -503.85 0.5 -494.8 -1.6 -484.95 -1.15 L-465.55 -2.05 -446.45 -3.45 -426.95 -3.5 -407.95 -3.5 Q-398.4 -3.5 -387.9 -3.8 L-387.5 -3.75 Q-378.8 -2.05 -369.45 -1.05 -360.6 -0.1 -350.45 -0.6 L-331.45 -1.25 -311.95 -1.5 -292.45 -1.35 -272.85 -2.1 -253.45 -3.0 -234.45 -2.8 -215.4 -1.8 Q-205.75 -1.05 -196.35 0.95 -186.8 2.95 -176.95 3.45 -167.3 3.95 -157.45 3.95 L-137.95 4.0 -118.95 4.0 -99.45 4.15 Q-89.55 4.35 -79.95 4.05 -72.95 3.85 -66.8 1.95 -59.45 -0.35 -49.45 -0.7 L-31.05 -1.75 -30.45 -1.8 -16.4 -2.4 -15.9 -2.5 -2.5 -3.2 Q6.5 -2.8 15.45 -2.75 L17.0 -2.75 36.45 -1.95 54.1 -0.25 73.5 0.65 92.0 1.3 111.5 2.6 Q121.65 3.15 130.5 2.4 L149.5 1.3 168.9 -0.4 187.5 -1.95 206.5 -2.25 225.5 -2.25 245.0 -2.25 263.5 -2.25 282.0 -2.25 301.0 -2.25 319.5 -2.25 338.5 -2.25 358.0 -2.5 Q367.95 -2.75 377.0 0.1 386.2 3.0 395.55 4.0 405.45 5.1 414.95 4.55 L430.45 3.3 430.95 3.25 450.0 2.2 Q459.45 1.35 468.35 -1.25 477.4 -3.95 486.55 -5.45 496.15 -7.0 506.0 -6.95 L525.05 -5.85 544.5 -4.75 563.0 -4.75 581.5 -4.9 Q590.6 -5.05 599.5 -3.65 L618.55 -1.05 638.0 0.35 Q647.5 0.75 657.0 0.75 L658.9 0.75" fill="none" stroke="#333300" stroke-linecap="round" stroke-linejoin="round" stroke-width="1.0"/>
    <path d="M36.45 -1.95 L17.0 -2.75 15.45 -2.75 Q6.5 -2.8 -2.5 -3.2 L-15.9 -2.5 -16.4 -2.4 -30.45 -1.8 -31.05 -1.75 -49.45 -0.7 Q-59.45 -0.35 -66.8 1.95 -72.95 3.85 -79.95 4.05 -89.55 4.35 -99.45 4.15 L-118.95 4.0 -137.95 4.0 -157.45 3.95 Q-167.3 3.95 -176.95 3.45 -186.8 2.95 -196.35 0.95 -205.75 -1.05 -215.4 -1.8 L-234.45 -2.8 -253.45 -3.0 -272.85 -2.1 -292.45 -1.35 -311.95 -1.5 -331.45 -1.25 -350.45 -0.6 Q-360.6 -0.1 -369.45 -1.05 -378.8 -2.05 -387.5 -3.75 L-387.9 -3.8 Q-398.4 -3.5 -407.95 -3.5 L-426.95 -3.5 -446.45 -3.45 -465.55 -2.05 -484.95 -1.15 Q-494.8 -1.6 -503.85 0.5 -512.75 2.55 -522.45 2.15 L-541.45 1.4 Q-551.2 1.0 -560.95 1.0 L-578.95 1.0 -598.45 1.0 -617.45 1.0 -636.45 1.0 -651.0 1.0 -651.0 -24.85 -597.65 -26.8 -548.5 -30.75 Q-499.05 -35.4 -449.55 -31.4 L-425.3 -28.65 Q-380.25 -22.85 -334.5 -25.75 -292.05 -28.05 -250.2 -20.5 -217.5 -14.45 -186.8 -22.95 -174.25 -26.45 -161.6 -28.5 -127.6 -34.05 -94.95 -28.55 -57.7 -22.55 -19.9 -17.7 -8.45 -16.15 2.35 -20.95 28.75 -32.4 58.1 -28.85 94.25 -24.75 129.55 -18.7 L141.4 -17.15 Q177.25 -12.6 210.55 -26.9 215.55 -29.1 220.9 -26.65 264.9 -6.45 311.6 -16.65 323.25 -19.35 335.45 -20.4 382.75 -25.0 430.95 -22.65 473.75 -20.1 515.8 -27.95 536.4 -32.0 556.65 -26.5 577.4 -20.75 598.45 -18.25 628.65 -14.55 658.9 -17.5 L658.9 0.75 657.0 0.75 Q647.5 0.75 638.0 0.35 L618.55 -1.05 599.5 -3.65 Q590.6 -5.05 581.5 -4.9 L563.0 -4.75 544.5 -4.75 525.05 -5.85 506.0 -6.95 Q496.15 -7.0 486.55 -5.45 477.4 -3.95 468.35 -1.25 459.45 1.35 450.0 2.2 L430.95 3.25 430.45 3.3 414.95 4.55 Q405.45 5.1 395.55 4.0 386.2 3.0 377.0 0.1 367.95 -2.75 358.0 -2.5 L338.5 -2.25 319.5 -2.25 301.0 -2.25 282.0 -2.25 263.5 -2.25 245.0 -2.25 225.5 -2.25 206.5 -2.25 187.5 -1.95 168.9 -0.4 149.5 1.3 130.5 2.4 Q121.65 3.15 111.5 2.6 L92.0 1.3 73.5 0.65 54.1 -0.25 36.45 -1.95" fill="url(#gradient2)" fill-rule="evenodd" stroke="none"/>
    <path d="M653.85 -18.45 L658.9 -17.7 658.9 0.75 657.0 0.75 Q647.5 0.75 638.0 0.35 L618.55 -1.05 599.5 -3.65 Q590.6 -5.05 581.5 -4.9 L563.0 -4.75 544.5 -4.75 525.05 -5.85 506.0 -6.95 Q496.15 -7.0 486.55 -5.45 477.4 -3.95 468.35 -1.25 459.45 1.35 450.0 2.2 L430.95 3.25 430.45 3.3 414.95 4.55 Q405.45 5.1 395.55 4.0 386.2 3.0 377.0 0.1 367.95 -2.75 358.0 -2.5 L338.5 -2.25 319.5 -2.25 301.0 -2.25 282.0 -2.25 263.5 -2.25 245.0 -2.25 225.5 -2.25 206.5 -2.25 187.5 -1.95 168.9 -0.4 149.5 1.3 130.5 2.4 Q121.65 3.15 111.5 2.6 L92.0 1.3 73.5 0.65 54.1 -0.25 36.45 -1.95 17.0 -2.75 15.45 -2.75 Q6.5 -2.8 -2.5 -3.2 L-15.9 -2.5 -16.4 -2.4 -30.45 -1.8 -31.05 -1.75 -49.45 -0.7 Q-59.45 -0.35 -66.8 1.95 -72.95 3.85 -79.95 4.05 -89.55 4.35 -99.45 4.15 L-118.95 4.0 -137.95 4.0 -157.45 3.95 Q-167.3 3.95 -176.95 3.45 -186.8 2.95 -196.35 0.95 -205.75 -1.05 -215.4 -1.8 L-234.45 -2.8 -253.45 -3.0 -272.85 -2.1 -292.45 -1.35 -311.95 -1.5 -331.45 -1.25 -350.45 -0.6 Q-360.6 -0.1 -369.45 -1.05 -378.8 -2.05 -387.5 -3.75 L-387.9 -3.8 Q-398.4 -3.5 -407.95 -3.5 L-426.95 -3.5 -446.45 -3.45 -465.55 -2.05 -484.95 -1.15 Q-494.8 -1.6 -503.85 0.5 -512.75 2.55 -522.45 2.15 L-541.45 1.4 Q-551.2 1.0 -560.95 1.0 L-578.95 1.0 -598.45 1.0 -617.45 1.0 -636.45 1.0 -651.0 1.0 -651.0 -22.25 -620.95 -22.4 -597.3 -23.2 Q-582.5 -24.1 -567.9 -26.15 L-550.4 -28.95 Q-538.6 -31.0 -527.15 -33.9 -517.9 -36.2 -508.6 -37.45 L-496.15 -38.7 -490.05 -39.0 -484.0 -39.05 -478.0 -39.0 -466.1 -38.2 -448.55 -35.6 Q-439.9 -33.85 -431.45 -31.25 -418.9 -27.2 -407.15 -22.1 -400.2 -19.05 -392.55 -18.85 -367.6 -18.15 -342.75 -19.6 -317.85 -20.95 -293.1 -24.4 -261.0 -28.7 -228.45 -28.6 L-182.2 -27.0 -108.25 -24.4 Q-88.05 -23.95 -67.95 -24.6 L-10.5 -27.65 17.6 -26.7 Q28.8 -25.5 39.65 -23.15 62.35 -18.65 84.8 -13.5 99.45 -10.15 114.25 -8.7 L132.15 -7.4 Q141.3 -7.05 150.35 -7.15 L191.85 -9.1 Q209.5 -10.65 227.05 -13.1 L255.05 -17.3 268.55 -18.45 311.5 -18.95 335.95 -20.3 360.2 -23.8 378.4 -26.95 388.25 -29.1 399.9 -30.3 Q418.55 -30.85 437.35 -30.15 462.2 -29.2 486.75 -25.65 L507.95 -22.3 517.15 -21.05 540.55 -19.05 563.9 -18.35 Q575.6 -18.1 587.35 -18.4 L610.75 -19.2 612.5 -20.7 618.45 -20.75 Q636.3 -20.85 653.85 -18.45" fill="url(#gradient3)" fill-rule="evenodd" stroke="none"/>
  </g>
  <defs>
    <linearGradient gradientTransform="matrix(0.0, 0.0508, -1.0986, 1.0E-4, 208.0, 0.0)" gradientUnits="userSpaceOnUse" id="gradient0" spreadMethod="pad" x1="-819.2" x2="819.2">
      <stop offset="0.0" stop-color="#97a4fd"/>
      <stop offset="1.0" stop-color="#1b4385"/>
    </linearGradient>
    <linearGradient gradientTransform="matrix(0.0, 0.0508, -1.0986, 1.0E-4, 208.0, 0.0)" gradientUnits="userSpaceOnUse" id="gradient1" spreadMethod="pad" x1="-819.2" x2="819.2">
      <stop offset="0.0" stop-color="#97a4fd"/>
      <stop offset="1.0" stop-color="#eeeeff"/>
    </linearGradient>
    <linearGradient gradientTransform="matrix(0.0, 0.0508, -1.0986, 1.0E-4, 208.0, 0.0)" gradientUnits="userSpaceOnUse" id="gradient2" spreadMethod="pad" x1="-819.2" x2="819.2">
      <stop offset="0.17647058823529413" stop-color="#7d8956"/>
      <stop offset="0.5490196078431373" stop-color="#354e32"/>
      <stop offset="1.0" stop-color="#000000"/>
    </linearGradient>
    <linearGradient gradientTransform="matrix(0.0, 0.0508, -1.0986, 1.0E-4, 208.0, 0.0)" gradientUnits="userSpaceOnUse" id="gradient3" spreadMethod="pad" x1="-819.2" x2="819.2">
      <stop offset="0.0" stop-color="#aeb689"/>
      <stop offset="1.0" stop-color="#304f2b"/>
    </linearGradient>
  </defs>
</svg>
